<svg xmlns="http://www.w3.org/2000/svg" version="1.1" xmlns:xlink="http://www.w3.org/1999/xlink" xmlns:svgjs="http://svgjs.dev/svgjs" width="1440" height="800" preserveAspectRatio="none" viewBox="0 0 1440 800"><g mask="url(&quot;#SvgjsMask1010&quot;)" fill="none"><rect width="1440" height="800" x="0" y="0" fill="rgba(255, 255, 255, 1)"></rect><path d="M501.12 889.32C637.9 831.38 582.94 405.81 845.42 405.04 1107.89 404.27 1346.73 694.86 1534.01 701.04" stroke="rgba(28, 83, 142, 0.4)" stroke-width="2"></path><path d="M478.83 866.19C597.98 856.44 679.07 616.37 886.19 615.74 1093.31 615.11 1089.87 715.74 1293.55 715.74 1497.23 715.74 1596.05 616.47 1700.91 615.74" stroke="rgba(28, 83, 142, 0.4)" stroke-width="2"></path><path d="M679.71 838.03C776.26 815.47 692.82 598.48 960.33 557.77 1227.84 517.06 1350.41 177.53 1521.57 157.77" stroke="rgba(28, 83, 142, 0.4)" stroke-width="2"></path><path d="M43.94 885.45C208.69 842.27 257.5 397.57 511.03 389.51 764.56 381.45 744.58 489.51 978.13 489.51 1211.67 489.51 1325.8 390.07 1445.22 389.51" stroke="rgba(28, 83, 142, 0.4)" stroke-width="2"></path><path d="M846.32 930.06C956.63 926.98 1008.35 791.39 1255.63 764.82 1502.92 738.25 1525.33 396.1 1664.95 364.82" stroke="rgba(28, 83, 142, 0.4)" stroke-width="2"></path></g><defs><mask id="SvgjsMask1010"><rect width="1440" height="800" fill="#ffffff"></rect></mask></defs></svg>